# xmcd CD database file
#
# Track frame offsets:
#	150
#	16309
#	42156
#	65703
#	87074
#	103081
#	120188
#	143204
#	159354
#	181621
#	200615
#	218609
#	237607
#	257051
#
# Disc length: 3833 seconds
#
# Revision: 0
# Processed by: cddbd v1.5.2PL0 Copyright (c) Steve Scherf et al.
# Submitted via: CDex 1.70beta2
#
DISCID=b80ef70e
DTITLE=Alice In Neverland - Festa In Neverland
DYEAR=2009
DGENRE=Jazz
TTITLE0=Welcome to festa
TTITLE1=바람을 타고온 편지
TTITLE2=안녕! 하루
TTITLE3=양탄자의 꿈
TTITLE4=광대의 둘째 딸
TTITLE5=스파르타쿠스 러브 테마
TTITLE6=네버랜드 횡단열차
TTITLE7=비밀이야기
TTITLE8=Festa, in Neverland
TTITLE9=잠수부의 운명
TTITLE10=토리의 춤
TTITLE11=길
TTITLE12=Infinite Love
TTITLE13=Tale of the island
EXTD=YEAR: 2009
EXTT0=
EXTT1=
EXTT2=
EXTT3=
EXTT4=
EXTT5=
EXTT6=
EXTT7=
EXTT8=
EXTT9=
EXTT10=
EXTT11=
EXTT12=
EXTT13=
PLAYORDER=
